# xmcd
#
# Track frame offsets: 
#        150
#        13264
#        29180
#        42888
#        55345
#        67353
#        84329
#        96543
#        112036
#        127153
#        140942
#        155509
#        169342
#        184954
#
# Disc length: 2677 seconds
#
# Revision: 0
# Processed by: cddbd v1.5.2PL0 Copyright (c) Steve Scherf et al.
# Submitted via: ExactAudioCopy v0.95b4
#
DISCID=e20a730e
DTITLE=Jimmy Buckley - Broken White Lines
DYEAR=2005
DGENRE=Country
TTITLE0=Kelly-Ann
TTITLE1=The Swallow
TTITLE2=Blue Ridge Mountain Girl
TTITLE3=Let It Slide
TTITLE4=Tennessee Border
TTITLE5=Nothing Sure Looked Good On You
TTITLE6=The Roots Of My Raising
TTITLE7=Foe The Last Time
TTITLE8=The In Crowd
TTITLE9=If God Can Forgive You
TTITLE10=The Monivea Angel
TTITLE11=Little Did I Know
TTITLE12=Broken White Lines
TTITLE13=Who Where You Thinking Of
EXTD=
EXTT0=
EXTT1=
EXTT2=
EXTT3=
EXTT4=
EXTT5=
EXTT6=
EXTT7=
EXTT8=
EXTT9=
EXTT10=
EXTT11=
EXTT12=
EXTT13=
PLAYORDER=
